<svg width="1024mm" height="1024mm" version="1.1" viewBox="0 0 1024 1024" xmlns="http://www.w3.org/2000/svg"><g><g stroke-linecap="round" stroke-linejoin="round" stroke-width="6.8018"><path d="m355.9 791.26 0.73122 1.2511 23.366 115.7-109.48 41.549a500 500 0 0 0 241.48 62.237 500 500 0 0 0 174.8-31.558l37.497-110.67-104.14-55.565 1.1782-1.4697a320 320 0 0 1-109.34 19.267 320 320 0 0 1-156.1-40.739z" fill="#4e82e6" stop-color="#000000"/><path d="m192.13 518.09-3e-3 6e-3 -88.518 78.086-91.446-74.627a500 500 0 0 0 182.21 376.46l114.68-22.879-3.9491-117.97 1.7229 0.26406a320 320 0 0 1-114.7-239.34z" fill="#79d670" stop-color="#000000"/><path d="m927.28 507.48-100.19 62.405-0.29249-0.75034a320 320 0 0 1-151.63 218.13l1.3699-7e-3 111.88 37.616-18.762 115.62a500 500 0 0 0 235.23-344.61z" fill="#79d670" stop-color="#000000"/><path d="m830.37 126.61-115.42 23.027 3.9486 117.97-0.59687-0.0915a320 320 0 0 1 113.61 240.13l0.0346-0.061 88.518-78.086 91.406 74.594a500 500 0 0 0-181.5-377.48z" fill="#7cdeee" stop-color="#000000"/><path d="m254.2 83.659a500 500 0 0 0-235.32 345.87l0.02739-0.0357 77.878 88.7 100.19-62.405 0.0222 0.0574a320 320 0 0 1 150.32-218.15l-0.13022 5.2e-4 -111.88-37.616z" fill="#7cdeee" stop-color="#000000"/><path d="m512 12a500 500 0 0 0-174.77 31.629l-37.799 111.56 104.14 55.565-0.26459 0.3297a320 320 0 0 1 108.69-19.088 320 320 0 0 1 155.41 40.325l-0.0439-0.0754-23.365-115.7 110.3-41.863a500 500 0 0 0-242.31-62.686z" fill="#4e82e6" stop-color="#000000"/></g><circle cx="512" cy="512" r="256.31" fill="#f5f023" stop-color="#000000"/></g></svg>
